#!OML:ASF E:\Style4\Style4.ASF
:FULLY-SPECIFIED
:DEGREES
2047
root -0.251047 17.9565 -1.84778 -0.658602 -0.742656 1.25929
lowerback 3.64804 2.35027 0.294134
upperback -0.3334 3.14785 0.0549069
thorax -2.37224 1.56641 -0.285311
lowerneck -5.84618 -5.35089 -6.88052
upperneck 19.0381 -7.21215 3.96919
head 7.18184 -3.62102 1.83891
rclavicle -9.72919e-015 6.75868e-015
rhumerus 58.8206 2.48868 -56.7657
rradius 52.3791
rwrist -50.9363
rhand -28.1744 6.80889
rfingers 7.12502
rthumb -1.55435 -23.1652
lclavicle -9.72919e-015 6.75868e-015
lhumerus 61.9157 -10.5986 59.1118
lradius 60.2956
lwrist 55.8324
lhand -18.9123 43.4782
lfingers 7.12502
lthumb 7.38982 73.3291
rfemur -8.16159 1.91481 18.0749
rtibia 25.8327
rfoot -15.5644 -15.7476
rtoes -14.2812
lfemur -5.99569 -4.2672 -19.7151
ltibia 23.5719
lfoot -16.9219 10.4804
ltoes -15.2906
2048
root -0.250879 17.9575 -1.84942 -0.669455 -0.754498 1.29028
lowerback 3.65891 2.34144 0.267658
upperback -0.315056 3.13482 0.0530538
thorax -2.36087 1.56029 -0.271727
lowerneck -5.85212 -5.35518 -6.90711
upperneck 19.0422 -7.22177 4.00718
head 7.18716 -3.6243 1.85447
rclavicle -1.91555e-014 -9.93923e-016
rhumerus 58.9121 2.4998 -56.9243
rradius 52.3378
rwrist -50.8088
rhand -28.1794 6.94188
rfingers 7.12502
rthumb -1.55923 -23.0322
lclavicle -1.91555e-014 -9.93923e-016
lhumerus 61.961 -10.5382 59.035
lradius 60.2879
lwrist 55.8677
lhand -18.8844 43.3708
lfingers 7.12502
lthumb 7.41675 73.2208
rfemur -8.15 1.94669 18.0424
rtibia 25.8286
rfoot -15.5612 -15.7539
rtoes -14.1318
lfemur -5.96575 -4.24976 -19.7497
ltibia 23.5285
lfoot -16.7875 10.5365
ltoes -15.6718
2049
root -0.250125 17.9585 -1.85 -0.660022 -0.751958 1.32239
lowerback 3.64937 2.34759 0.248035
upperback -0.320433 3.14171 0.0347322
thorax -2.36103 1.56387 -0.279645
lowerneck -5.78114 -5.37033 -6.88246
upperneck 19.0036 -7.25365 4.03048
head 7.1637 -3.63702 1.85732
rclavicle -1.13703e-014 3.77691e-015
rhumerus 58.9712 2.4347 -57.1794
rradius 52.2321
rwrist -50.6167
rhand -28.0712 6.90266
rfingers 7.12502
rthumb -1.45467 -23.0721
lclavicle -1.13703e-014 3.77691e-015
lhumerus 62.0075 -10.5595 59.0758
lradius 60.3747
lwrist 55.7647
lhand -18.8268 43.4521
lfingers 7.12502
lthumb 7.47232 73.3001
rfemur -8.16682 1.93975 17.9977
rtibia 25.8379
rfoot -15.5901 -15.7138
rtoes -13.9514
lfemur -5.94533 -4.24843 -19.7838
ltibia 23.4654
lfoot -16.7992 10.545
ltoes -15.6783
2050
root -0.249597 17.9599 -1.84937 -0.612693 -0.758649 1.32236
lowerback 3.58194 2.33748 0.243393
upperback -0.328275 3.12799 0.039744
thorax -2.33187 1.55725 -0.268294
lowerneck -5.76994 -5.35759 -6.88986
upperneck 19.0127 -7.24654 4.08399
head 7.16632 -3.62998 1.87678
rclavicle -3.78157e-016 -5.56597e-015
rhumerus 59.0433 2.43857 -57.3472
rradius 52.1756
rwrist -50.4625
rhand -28.1405 7.00927
rfingers 7.12502
rthumb -1.52158 -22.9651
lclavicle -3.78157e-016 -5.56597e-015
lhumerus 61.9995 -10.5254 59.117
lradius 60.4887
lwrist 55.6736
lhand -18.7508 43.4735
lfingers 7.12502
lthumb 7.54569 73.3189
rfemur -8.22312 1.87474 17.9898
rtibia 25.8313
rfoot -15.5522 -15.6634
rtoes -14.1922
lfemur -5.97038 -4.23585 -19.7829
ltibia 23.4167
lfoot -16.8308 10.5514
ltoes -15.7441
2051
root -0.249014 17.9606 -1.84953 -0.584433 -0.76215 1.35436
lowerback 3.53863 2.33141 0.229503
upperback -0.337041 3.11881 0.0223758
thorax -2.3164 1.55282 -0.276092
lowerneck -5.6262 -5.31801 -6.93412
upperneck 18.9073 -7.22064 4.235
head 7.1119 -3.6106 1.93975
rclavicle -2.39594e-014 -5.76476e-015
rhumerus 59.0533 2.43149 -57.414
rradius 52.2313
rwrist -50.4707
rhand -28.1599 7.08149
rfingers 7.12502
rthumb -1.54039 -22.8927
lclavicle -2.39594e-014 -5.76476e-015
lhumerus 61.9253 -10.5278 59.0885
lradius 60.576
lwrist 55.5812
lhand -18.7502 43.2929
lfingers 7.12502
lthumb 7.54628 73.1383
rfemur -8.26082 1.82104 17.9441
rtibia 25.8224
rfoot -15.5353 -15.6101
rtoes -14.2872
lfemur -5.98988 -4.21571 -19.8213
ltibia 23.3805
lfoot -16.7809 10.6263
ltoes -16.2842
2052
root -0.248888 17.9611 -1.85035 -0.593665 -0.753356 1.3542
lowerback 3.56068 2.33368 0.242846
upperback -0.334545 3.12219 0.0103345
thorax -2.3248 1.55422 -0.296963
lowerneck -5.46941 -5.30395 -6.97023
upperneck 18.7165 -7.22528 4.3694
head 7.02853 -3.60702 1.9939
rclavicle 2.99458e-014 -1.59028e-015
rhumerus 59.0725 2.37676 -57.417
rradius 52.3023
rwrist -50.5396
rhand -28.2278 7.04033
rfingers 7.12502
rthumb -1.60593 -22.9334
lclavicle 2.99458e-014 -1.59028e-015
lhumerus 61.8547 -10.5719 59.014
lradius 60.7447
lwrist 55.5898
lhand -18.7985 43.1255
lfingers 7.12502
lthumb 7.49963 72.9726
rfemur -8.23458 1.87875 17.946
rtibia 25.8037
rfoot -15.5882 -15.6343
rtoes -13.943
lfemur -5.97678 -4.20703 -19.8205
ltibia 23.3651
lfoot -16.745 10.6293
ltoes -16.4629
2053
root -0.248434 17.9604 -1.85151 -0.612069 -0.716718 1.35476
lowerback 3.59538 2.3273 0.263781
upperback -0.333512 3.11432 -0.00494161
thorax -2.34128 1.54986 -0.32538
lowerneck -5.55512 -5.34421 -6.9018
upperneck 18.7957 -7.27428 4.30242
head 7.0673 -3.62985 1.95403
rclavicle 5.17888e-015 -3.18055e-015
rhumerus 59.0856 2.32613 -57.3869
rradius 52.3592
rwrist -50.5523
rhand -28.2919 7.03146
rfingers 7.12502
rthumb -1.66787 -22.9418
lclavicle 5.17888e-015 -3.18055e-015
lhumerus 61.7962 -10.6043 58.9914
lradius 60.9324
lwrist 55.6128
lhand -18.7925 43.159
lfingers 7.12502
lthumb 7.50548 73.0058
rfemur -8.19877 1.92838 17.9484
rtibia 25.7979
rfoot -15.5972 -15.7039
rtoes -13.8393
lfemur -5.94831 -4.28535 -19.8253
ltibia 23.3486
lfoot -16.8214 10.5682
ltoes -15.8734
2054
root -0.248233 17.9616 -1.85132 -0.59232 -0.655898 1.32367
lowerback 3.57118 2.29301 0.28721
upperback -0.343958 3.06998 0.0116585
thorax -2.33839 1.52756 -0.318201
lowerneck -5.65574 -5.37586 -6.85132
upperneck 18.8722 -7.30284 4.20648
head 7.10637 -3.64629 1.90904
rclavicle 1.36272e-014 4.37326e-015
rhumerus 59.1238 2.33688 -57.3761
rradius 52.3944
rwrist -50.4915
rhand -28.2628 7.09264
rfingers 7.12502
rthumb -1.63974 -22.8808
lclavicle 1.36272e-014 4.37326e-015
lhumerus 61.7081 -10.5926 58.996
lradius 61.0958
lwrist 55.6412
lhand -18.8241 43.2493
lfingers 7.12502
lthumb 7.47494 73.0973
rfemur -8.19525 1.96031 17.9899
rtibia 25.7862
rfoot -15.5644 -15.7908
rtoes -14.0418
lfemur -5.96635 -4.36269 -19.7891
ltibia 23.345
lfoot -16.8756 10.5261
ltoes -15.3419
2055
root -0.247957 17.9613 -1.85172 -0.563128 -0.597505 1.35617
lowerback 3.54283 2.27373 0.242203
upperback -0.356224 3.04229 0.0117723
thorax -2.33761 1.51433 -0.290572
lowerneck -5.62474 -5.39059 -6.8783
upperneck 18.8101 -7.32604 4.24044
head 7.08442 -3.65708 1.9235
rclavicle 2.73717e-015 -7.95139e-016
rhumerus 59.1409 2.32247 -57.3274
rradius 52.465
rwrist -50.4398
rhand -28.2255 7.17569
rfingers 7.12502
rthumb -1.60374 -22.798
lclavicle 2.73717e-015 -7.95139e-016
lhumerus 61.7019 -10.5934 59.0293
lradius 61.1657
lwrist 55.6262
lhand -18.8525 43.3163
lfingers 7.12502
lthumb 7.4475 73.1652
rfemur -8.22084 1.94072 17.9528
rtibia 25.7865
rfoot -15.5307 -15.8344
rtoes -14.009
lfemur -6.01081 -4.38502 -19.8216
ltibia 23.3441
lfoot -16.8027 10.4949
ltoes -15.3879
2056
root -0.247994 17.9607 -1.8521 -0.552865 -0.5898 1.32407
lowerback 3.52849 2.26462 0.273004
upperback -0.359123 3.03176 0.0259016
thorax -2.33177 1.5088 -0.292136
lowerneck -5.5584 -5.38261 -6.87971
upperneck 18.709 -7.31689 4.24803
head 7.03971 -3.65328 1.92937
rclavicle 3.44523e-014 -2.98177e-015
rhumerus 59.1817 2.30326 -57.3355
rradius 52.4612
rwrist -50.3426
rhand -28.1262 7.30174
rfingers 7.12502
rthumb -1.50783 -22.6727
lclavicle 3.44523e-014 -2.98177e-015
lhumerus 61.6902 -10.5817 59.0262
lradius 61.2131
lwrist 55.5869
lhand -18.858 43.3303
lfingers 7.12502
lthumb 7.44223 73.1794
rfemur -8.23198 1.96191 17.9895
rtibia 25.779
rfoot -15.5699 -15.8715
rtoes -13.9185
lfemur -6.03976 -4.39172 -19.7859
ltibia 23.3647
lfoot -16.7317 10.5298
ltoes -15.5645
2057
root -0.247909 17.9605 -1.85328 -0.572244 -0.57418 1.32336
lowerback 3.55156 2.26801 0.275791
upperback -0.348938 3.03638 0.023245
thorax -2.33393 1.51104 -0.297408
lowerneck -5.50409 -5.39079 -6.87027
upperneck 18.6087 -7.3335 4.27136
head 6.99907 -3.65964 1.93595
rclavicle -4.88808e-014 -2.98177e-015
rhumerus 59.2014 2.24489 -57.3104
rradius 52.5118
rwrist -50.2387
rhand -28.1123 7.21494
rfingers 7.12502
rthumb -1.49439 -22.7596
lclavicle -4.88808e-014 -2.98177e-015
lhumerus 61.7312 -10.5941 58.9467
lradius 61.2497
lwrist 55.655
lhand -18.7953 43.2341
lfingers 7.12502
lthumb 7.50277 73.0811
rfemur -8.20929 1.94329 17.9941
rtibia 25.7696
rfoot -15.6058 -15.9017
rtoes -13.9908
lfemur -6.04436 -4.37679 -19.7875
ltibia 23.396
lfoot -16.7068 10.5503
ltoes -15.9008
2058
root -0.248016 17.9607 -1.85451 -0.554826 -0.54473 1.25914
lowerback 3.55072 2.26541 0.330115
upperback -0.355545 3.03581 0.0457562
thorax -2.33866 1.51018 -0.30474
lowerneck -5.55043 -5.41175 -6.86253
upperneck 18.633 -7.3597 4.2626
head 7.0161 -3.67164 1.92811
rclavicle 5.05115e-015 4.57205e-015
rhumerus 59.2283 2.21583 -57.2406
rradius 52.5651
rwrist -50.1434
rhand -28.1631 7.11286
rfingers 7.12502
rthumb -1.54341 -22.8613
lclavicle 5.05115e-015 4.57205e-015
lhumerus 61.7729 -10.623 58.8376
lradius 61.2856
lwrist 55.6959
lhand -18.8576 43.2376
lfingers 7.12502
lthumb 7.44262 73.0866
rfemur -8.22357 1.9603 18.0704
rtibia 25.7628
rfoot -15.608 -15.9233
rtoes -13.8531
lfemur -6.08909 -4.41549 -19.7145
ltibia 23.433
lfoot -16.7031 10.543
ltoes -15.9189
2059
root -0.248518 17.9605 -1.856 -0.556767 -0.543116 1.19481
lowerback 3.55692 2.26809 0.378073
upperback -0.359948 3.04206 0.0696215
thorax -2.34543 1.5128 -0.307766
lowerneck -5.46071 -5.4152 -6.8987
upperneck 18.5335 -7.37127 4.31214
head 6.97201 -3.67717 1.95198
rclavicle -4.73278e-016 -4.37326e-015
rhumerus 59.2654 2.18275 -57.1296
rradius 52.6019
rwrist -50.0685
rhand -28.134 6.93026
rfingers 7.12502
rthumb -1.51532 -23.0441
lclavicle -4.73278e-016 -4.37326e-015
lhumerus 61.8156 -10.6458 58.793
lradius 61.2598
lwrist 55.6433
lhand -18.8136 43.1962
lfingers 7.12502
lthumb 7.48507 73.0437
rfemur -8.24386 1.98039 18.148
rtibia 25.8052
rfoot -15.6055 -15.9208
rtoes -13.8471
lfemur -6.10026 -4.4217 -19.635
ltibia 23.4441
lfoot -16.7349 10.5252
ltoes -15.8342
